<svg role="img" viewBox="0 0 24 24" xmlns="http://www.w3.org/2000/svg"><title>Cloudflare</title><path fill="#F38020" d="M16.5088 16.8447c.1475-.5068.0908-.9707-.1553-1.3154-.2246-.3164-.6045-.499-1.0615-.5205l-8.6592-.1123a.1559.1559 0 0 1-.1333-.0713c-.0283-.042-.0351-.0986-.021-.1553.0278-.084.1123-.1484.2036-.1562l8.7359-.1123c1.0351-.0488 2.1601-.8868 2.5537-1.9043l.499-1.2891c.0215-.0561.0293-.1191.0147-.1826-.5765-2.8105-3.0864-4.9131-6.0903-4.9131-3.4036 0-6.1795 2.6006-6.4844 5.9146-.6534-.4971-1.4746-.7676-2.3535-.6973-1.4453.1113-2.6162 1.2393-2.7705 2.6846-.0464.4277-.0063.8486.1055 1.2393-.0713-.0068-.1416-.0146-.2129-.0146A2.9484 2.9484 0 0 0 0 18.0527c0 .1172.0083.2266.0161.3428h16.3652c.0908 0 .1689-.0644.1973-.1485l.4365-1.4032zm2.1582-4.834c-.0713 0-.1416.0059-.2129.0059l-.0928-.0059c-.0566 0-.1113.042-.127.0986l-.3232 1.084c-.1475.5067-.0918.9707.1543 1.3154.2256.3164.6055.499 1.0625.5205l1.8232.1123c.0713.0059.1348.0489.1553.1055.0215.042.0283.0986.0137.1553-.0283.084-.1133.1484-.2051.1562l-1.9004.1123c-1.0283.0489-2.1533.8868-2.5469 1.9043l-.1387.3574c-.0342.0918.0283.1885.127.1885h6.5654c.0634 0 .1201-.0429.1416-.1054.1768-.5098.2744-1.0557.2744-1.6236.001-2.9297-2.3789-5.3086-5.3086-5.3086z"/></svg>