<svg xmlns="http://www.w3.org/2000/svg" viewBox="0 0 24 24" fill="currentColor"><path d="M12 2.25c-5.385 0-9.75 4.365-9.75 9.75s4.365 9.75 9.75 9.75 9.75-4.365 9.75-9.75S17.385 2.25 12 2.25zm.03 2.507a7.214 7.214 0 014.288 1.417L14.71 8.358a4.048 4.048 0 00-2.678-.992c-.99 0-1.89.356-2.585.945l-1.58-2.227a7.227 7.227 0 014.162-1.377zM4.77 12c0-.98.196-1.916.55-2.768l2.368 1.137a4.053 4.053 0 00-.168 1.155 4.057 4.057 0 00.324 1.574l-2.433 1.053A7.261 7.261 0 014.77 12zm1.66 4.332a7.215 7.215 0 01-1.383-4.14l2.433-1.053a4.053 4.053 0 001.077 2.455l-1.58 2.227a7.195 7.195 0 01-.547-.511v.022zm1.667 2.373a7.192 7.192 0 01-2.906-1.832l1.58-2.227c.563.473 1.28.766 2.064.766.19 0 .373-.016.551-.047l.457 2.686a7.302 7.302 0 01-1.746-.346zm5.825 0a7.214 7.214 0 01-4.137-.021l-.458-2.686c.449.125.922.193 1.41.193 1.11 0 2.115-.453 2.842-1.185l1.93 1.93a7.252 7.252 0 01-1.587 1.769zm2.46-.388a7.203 7.203 0 01-3.267.892l-1.93-1.93a4.037 4.037 0 001.385-1.986l2.648.468c.451.98.868 1.841 1.164 2.556zm2.493-2.985a7.234 7.234 0 01-2.186 2.443l-2.648-.468a4.05 4.05 0 00.672-2.196l2.715.112c.755.031 1.253.078 1.447.109zm0-4.664a7.238 7.238 0 01.375 2.22l-2.715-.112a4.058 4.058 0 00-.735-1.586l2.13-1.68c.445.549.77 1.144.945 1.158zm-2.122-3.666a7.234 7.234 0 012.186 2.444l-2.13 1.68a4.048 4.048 0 00-1.868-1.56l1.246-2.42c.249.49.44.896.566 1.856zm-4.312-1.396a7.203 7.203 0 013.267.892l-1.246 2.42a4.045 4.045 0 00-2.478.026l-.601-2.656a7.238 7.238 0 011.058-.682z"/></svg>
